<svg width="48" height="48" viewBox="0 0 48 48" fill="none" xmlns="http://www.w3.org/2000/svg">
<mask id="mask0_9736_39540" style="mask-type:alpha" maskUnits="userSpaceOnUse" x="0" y="0" width="48" height="48">
<circle cx="24" cy="24" r="24" fill="#D9D9D9"/>
</mask>
<g mask="url(#mask0_9736_39540)">
<circle cx="24" cy="24" r="24" fill="#EBEFFD"/>
<g clip-path="url(#clip0_9736_39540)">
<path fill-rule="evenodd" clip-rule="evenodd" d="M11.93 17.5789C10.7909 18.1375 9.67556 18.1999 8.58396 17.8516C7.94838 17.649 7.33181 17.31 6.72948 16.8679C7.08765 17.6878 7.81348 18.6941 9.27749 19.5376C9.52355 19.6796 9.6081 19.9939 9.4656 20.2391C9.41429 20.3281 9.33924 20.3953 9.25374 20.4389C9.10363 20.5156 8.91932 20.5165 8.76257 20.4256C8.54406 20.2997 8.33885 20.17 8.14694 20.0375C5.67969 18.3353 5.37853 16.1863 5.35288 15.4725C5.34528 15.2633 5.46688 15.0711 5.65974 14.9859C5.85165 14.9007 6.07586 14.9414 6.22691 15.0881C7.1608 15.9951 8.04244 16.601 8.89842 16.8746C9.20624 16.973 9.515 17.0298 9.82756 17.0393C10.2646 17.0535 10.7082 16.9768 11.1662 16.796C11.2678 16.7553 11.3714 16.7098 11.4749 16.6587C11.7295 16.5337 12.0383 16.6379 12.1637 16.8916C12.2891 17.1463 12.1846 17.4539 11.93 17.5789Z" fill="#161C2E"/>
<path fill-rule="evenodd" clip-rule="evenodd" d="M11.7619 21.6289C11.455 22.3427 11.0788 23.1616 10.4043 23.7713C10.3321 23.8366 10.257 23.8981 10.1791 23.9568C9.50081 24.4737 8.59638 24.7568 7.35087 24.6952C4.48081 24.5504 2.91894 22.0511 3.16975 20.099C3.1916 19.9276 3.29801 19.78 3.45286 19.7033C3.60772 19.6275 3.79108 19.6342 3.94023 19.7203C5.31304 20.5203 6.25073 20.6613 6.91006 20.5686C7.40503 20.4985 7.79454 20.2912 8.14606 20.0375C8.26386 19.9523 8.37787 19.8614 8.48997 19.7686C8.70848 19.5878 9.03339 19.6181 9.21485 19.8358C9.36116 20.0119 9.36971 20.2561 9.25285 20.4389C9.2253 20.4834 9.19015 20.5231 9.1474 20.5581C8.67143 20.951 8.0121 21.449 7.05446 21.5844C6.27163 21.6942 5.34914 21.556 4.2243 21.0296C4.46751 22.2669 5.57335 23.5781 7.40313 23.6709C8.56787 23.7287 9.25 23.4295 9.71362 23.0111C10.2019 22.5689 10.506 21.947 10.8157 21.2246C10.8565 21.129 10.923 21.0533 11.0038 21.0003C11.0142 20.9927 11.0256 20.9861 11.037 20.9794C11.0484 20.9738 11.0598 20.9671 11.0712 20.9624C11.095 20.951 11.1187 20.9425 11.1425 20.9349C11.152 20.9321 11.1605 20.9302 11.17 20.9274C11.1852 20.9245 11.2004 20.9217 11.2156 20.9188C11.2593 20.9122 11.3049 20.9113 11.3505 20.9179C11.3904 20.9217 11.4313 20.9311 11.4712 20.9472C11.4778 20.9491 11.4854 20.952 11.4921 20.9548C11.5044 20.9605 11.5158 20.9652 11.5272 20.9719C11.5272 20.9719 11.5282 20.9719 11.5282 20.9728C11.5462 20.9813 11.5633 20.9917 11.5795 21.0031C11.5842 21.0059 11.588 21.0097 11.5928 21.0126C11.6061 21.022 11.6194 21.0324 11.6318 21.0438C11.6479 21.058 11.6622 21.0722 11.6764 21.0883C11.6764 21.0883 11.6764 21.0889 11.6764 21.0902C11.6907 21.1063 11.704 21.1233 11.7163 21.1423C11.7249 21.1546 11.7325 21.1669 11.7391 21.1792C11.8123 21.3136 11.8246 21.4783 11.76 21.6289H11.7619Z" fill="#161C2E"/>
<path fill-rule="evenodd" clip-rule="evenodd" d="M12.7794 26.5793C12.6767 26.7838 12.5057 27.1255 12.2378 27.4834C11.9946 27.81 11.6707 28.1499 11.245 28.414C11.2023 28.4405 11.1595 28.4661 11.1149 28.4907C10.085 29.0644 8.65333 29.1146 6.71335 28.0287C6.52999 27.9264 6.42738 27.722 6.45589 27.5137C6.48344 27.3054 6.63639 27.135 6.84065 27.0839C8.28091 26.7251 9.37061 25.4925 10.0622 24.187C10.1031 24.1103 10.142 24.0336 10.1791 23.9569C10.4565 23.3946 10.6456 22.8521 10.7501 22.4147C10.809 22.1648 10.8375 21.9622 10.8422 21.8164C10.8451 21.7445 10.8422 21.6971 10.8365 21.6716C10.8356 21.6659 10.8356 21.6621 10.8346 21.6602L11.0037 21.0004C11.0142 20.9928 11.0256 20.9862 11.037 20.9795C11.0484 20.9739 11.0598 20.9672 11.0712 20.9625C11.0949 20.9511 11.1187 20.9426 11.1424 20.935C11.1519 20.9322 11.1605 20.9303 11.17 20.9275C11.1852 20.9246 11.2004 20.9218 11.2156 20.9189C11.2602 20.9133 11.3058 20.9123 11.3505 20.918C11.3923 20.9227 11.4322 20.9322 11.4711 20.9473C11.4901 20.954 11.5091 20.9625 11.5272 20.972C11.5272 20.972 11.5281 20.972 11.5281 20.9729C11.5462 20.9814 11.5633 20.9918 11.5794 21.0032C11.5842 21.006 11.588 21.0098 11.5928 21.0127C11.6061 21.0221 11.6194 21.0326 11.6317 21.0439C11.6479 21.0581 11.6621 21.0723 11.6764 21.0884C11.6764 21.0884 11.6764 21.089 11.6764 21.0903C11.6906 21.1064 11.7039 21.1234 11.7163 21.1424C11.7248 21.1547 11.7324 21.167 11.7391 21.1793C11.8046 21.2929 11.835 21.4103 11.8512 21.5059C11.8692 21.6167 11.873 21.735 11.8692 21.8515C11.8616 22.0853 11.8189 22.3589 11.7495 22.6505C11.6099 23.2365 11.3495 23.9503 10.9705 24.6669C10.39 25.7623 9.49126 26.9315 8.25336 27.6178C9.37821 28.024 10.1202 27.8687 10.6095 27.596C11.2868 27.2183 11.6498 26.5329 11.8559 26.1211C11.8692 26.0946 11.8844 26.07 11.9025 26.0463C12.0478 25.8484 12.3195 25.7784 12.5466 25.891C12.8012 26.0179 12.9038 26.3265 12.7774 26.5793H12.7794Z" fill="#161C2E"/>
<path fill-rule="evenodd" clip-rule="evenodd" d="M9.36274 13.0623C9.33424 13.3198 9.32759 13.6151 9.36084 13.9294C9.45869 14.8572 9.89381 15.9374 11.0975 16.7402C11.1222 16.7573 11.145 16.7752 11.1659 16.7961C11.3445 16.9636 11.3806 17.241 11.2391 17.4512C11.0804 17.686 10.7612 17.7494 10.5246 17.5913C10.2653 17.4181 10.0335 17.2334 9.82731 17.0394C8.84307 16.1192 8.4393 15.0077 8.33765 14.0364C8.27589 13.4533 8.32245 12.9174 8.4146 12.4924C8.46115 12.2803 8.52005 12.0891 8.58846 11.9291C8.65021 11.7842 8.74046 11.6138 8.87157 11.4907C8.99697 11.3752 9.17178 11.3279 9.33899 11.3667C9.5043 11.4046 9.6411 11.522 9.7019 11.6801L9.7038 11.6839C9.70665 11.6895 9.7114 11.7 9.71805 11.7151C9.73231 11.7454 9.75606 11.7946 9.79216 11.86C9.86341 11.9906 9.98312 12.1856 10.1665 12.4223C10.5332 12.8947 11.1564 13.5366 12.1701 14.1671L11.6248 15.0361C10.5123 14.3432 9.80071 13.6237 9.36274 13.0623Z" fill="#161C2E"/>
<path fill-rule="evenodd" clip-rule="evenodd" d="M12.2993 28.394C11.8671 30.3982 11.8642 32.7006 12.5739 34.8458L12.591 34.8969L11.85 35.6467L11.773 35.7253C10.784 33.2525 10.7897 30.6813 11.2448 28.4139C11.26 28.3344 11.2761 28.2567 11.2932 28.1782C11.4547 27.4312 11.6647 26.7165 11.9041 26.0462C12.4371 24.5561 13.1164 23.2913 13.7386 22.4052C13.9011 22.1732 14.2222 22.1164 14.455 22.2783C14.6877 22.4411 14.7447 22.7602 14.5813 22.9921C13.7567 24.167 12.7905 26.1219 12.2993 28.394Z" fill="#161C2E"/>
<path d="M39.0297 16.2781C36.9538 16.6473 36.1529 18.2548 36.0579 18.4612H36.0532C35.981 18.6231 35.9078 18.785 35.8309 18.9459C35.8195 18.9715 35.8071 18.9961 35.7948 19.0216C35.7881 19.0074 35.7815 18.9932 35.7739 18.979C35.6969 18.8209 35.6038 18.6638 35.4965 18.5066C35.4214 18.3987 35.3397 18.2898 35.2514 18.1829C35.1117 18.0134 34.9559 17.8449 34.7839 17.6802C34.0743 16.9985 33.0967 16.3623 31.9357 15.8454C31.7714 15.7716 31.6023 15.7006 31.4293 15.6324C30.9201 15.4298 30.3796 15.25 29.8162 15.0994C29.3934 14.9868 28.9744 14.895 28.5631 14.823H28.5621C28.5431 14.8192 28.5251 14.8154 28.507 14.8126C28.1508 14.752 27.7992 14.7056 27.4563 14.6744C27.215 14.6516 26.9775 14.6365 26.7438 14.6289C26.6098 14.6232 26.4768 14.6214 26.3457 14.6214C25.599 14.6214 24.9064 14.6961 24.2955 14.8391C24.2955 14.8391 24.2955 14.84 24.2946 14.84C23.6267 14.9972 23.2391 15.1411 22.803 15.4563C21.8881 16.1181 21.509 17.1538 21.1661 18.4309C21.148 18.4972 21.13 18.5634 21.1129 18.6306C21.0483 18.8758 20.9989 19.1277 20.9609 19.3795C20.6968 21.1422 21.0122 22.9448 21.0122 22.9448C21.1661 24.1111 21.5014 25.2206 21.9888 26.244C22.0639 26.4154 22.1551 26.5811 22.2054 26.6757C22.2425 26.7458 22.2805 26.8158 22.3194 26.885C22.3565 26.9522 22.3954 27.0194 22.4344 27.0857C22.4353 27.0885 22.4363 27.0904 22.4382 27.0923C22.4676 27.1434 22.498 27.1945 22.5294 27.2447C22.5474 27.2759 22.5664 27.3062 22.5854 27.3365C22.613 27.382 22.6415 27.4265 22.67 27.471L22.707 27.5278C22.7422 27.5836 22.7792 27.6385 22.8163 27.6925C22.9255 27.8534 23.0386 28.0125 23.1564 28.1677C23.1954 28.2207 23.2362 28.2728 23.2771 28.3249C23.3341 28.3987 23.393 28.4716 23.4528 28.5436C23.4405 28.5483 23.4281 28.554 23.4158 28.5587C22.4211 28.9658 21.4178 29.8207 20.5067 31.0097C19.3638 32.4998 18.3654 34.5163 17.7108 36.8348C17.4923 37.7578 17.2947 38.7055 17.1208 39.674C17.0363 40.1454 16.9564 40.6226 16.8823 41.1044C16.7303 41.0401 16.5907 40.9852 16.4691 40.9388C16.2135 40.8422 15.9285 40.9766 15.843 41.2351C15.7622 41.4774 15.8867 41.7416 16.1271 41.8315C16.9203 42.1269 17.5882 42.5141 17.5882 42.5141C18.2371 42.9297 18.8375 43.4835 19.3819 44.1642C21.0141 46.2053 21.6496 48.857 21.2345 51.4339C20.9647 53.1067 20.6017 54.7947 20.1486 56.4808C19.9443 57.2391 19.7239 57.9898 19.4883 58.7302L19.495 58.7321C19.2147 59.7337 18.8936 60.7258 18.5345 61.7009C16.4577 67.3575 13.2218 72.4346 10.5047 75.5502C9.63354 76.55 8.81461 77.348 8.10493 77.8981C8.33199 77.5554 8.5524 77.2051 8.76521 76.8453C9.13192 76.2271 9.47679 75.5843 9.7998 74.9178C9.72 74.9945 9.61549 75.0939 9.50434 75.1905C9.53949 75.1498 9.7561 74.845 10.0829 74.3157C10.6539 73.0642 11.1527 71.7312 11.5764 70.3216C11.8148 69.5254 12.0276 68.7141 12.2139 67.8867C12.325 67.3963 12.4267 66.8993 12.5188 66.3985C12.5644 66.1552 12.6072 65.9109 12.6471 65.6648C12.7487 65.0485 12.8361 64.4246 12.9093 63.7941C12.99 63.1077 12.8 65.164 12.8475 64.4634C12.4656 66.8945 12.8475 64.452 12.8475 64.4634C12.8665 64.3432 12.8 64.1955 12.7202 64.1112C12.6347 64.0184 12.5103 63.9598 12.3725 63.9598C12.1217 63.9598 11.9155 64.1548 11.8984 64.4047C11.8614 64.9576 12.2196 63.4665 12.1606 64.009C12.3117 64.7209 12.1606 64.009 12.1597 64.0099C12.058 64.9614 11.7721 65.1886 11.6058 66.1069C11.5222 66.5736 11.4301 67.0346 11.3294 67.4919C9.70005 69.5737 7.91967 71.2475 6.21435 72.3883C6.0576 72.517 5.92269 72.6221 5.81249 72.7026C5.72698 72.7641 5.63293 72.802 5.53697 72.8152C5.17881 73.0282 4.82445 73.2157 4.47768 73.3776C4.67909 73.1456 4.8805 72.907 5.08191 72.6637C5.77923 71.8164 6.47276 70.8981 7.13494 69.8946C9.39603 66.4695 11.2971 62.0559 11.8262 56.121C11.8281 56.1012 11.8291 56.0822 11.8291 56.0633C11.8291 55.8759 11.7483 55.7036 11.6163 55.5833C11.5165 55.4924 11.3883 55.4309 11.2439 55.4158C10.9218 55.3817 10.6244 55.5899 10.5427 55.9024C9.8815 58.4338 8.5467 61.0969 6.96013 63.139C6.08325 64.2674 5.12941 65.2075 4.16987 65.8295C4.14897 65.8427 4.12902 65.856 4.10812 65.8693C3.64545 61.8164 3.73285 55.6363 5.35837 49.6286C5.89324 47.6888 6.60197 45.801 7.47125 43.99C9.00652 40.7901 11.0406 37.8317 13.4955 35.2538L16.4026 32.1997C16.49 32.1089 16.5327 31.9915 16.5327 31.875C16.5327 31.7501 16.4833 31.6241 16.3845 31.5314C16.1945 31.3515 15.8934 31.3591 15.7128 31.5484L12.8057 34.6025C12.7288 34.6829 12.6518 34.7644 12.5758 34.8458C11.8661 32.7006 11.869 30.3982 12.3013 28.394C12.7924 26.1219 13.7586 24.167 14.5833 22.9921C14.7467 22.7602 14.6897 22.4411 14.4569 22.2783C14.2241 22.1164 13.903 22.1732 13.7406 22.4051C13.1183 23.2913 12.439 24.5561 11.906 26.0462C11.888 26.0698 11.8728 26.0945 11.8595 26.121C11.6533 26.5328 11.2904 27.2182 10.613 27.5959C10.1238 27.8686 9.38178 28.0238 8.25694 27.6177C9.49484 26.9313 10.3936 25.7622 10.974 24.6668C11.3531 23.9502 11.6134 23.2364 11.7531 22.6503C11.8224 22.3588 11.8652 22.0852 11.8728 21.8513C11.8766 21.7349 11.8728 21.6165 11.8547 21.5058C11.8386 21.4102 11.8082 21.2928 11.7426 21.1801C11.736 21.1669 11.7284 21.1546 11.7198 21.1422C11.7084 21.1243 11.6951 21.1063 11.6799 21.0902C11.6799 21.0902 11.6799 21.0895 11.6799 21.0883C11.6657 21.0722 11.6514 21.057 11.6353 21.0438C11.6229 21.0324 11.6106 21.022 11.5963 21.0125C11.5916 21.0097 11.5878 21.0059 11.583 21.0031C11.5669 20.9917 11.5498 20.9813 11.5317 20.9728C11.5317 20.9718 11.5308 20.9718 11.5308 20.9718C11.5194 20.9652 11.508 20.9605 11.4956 20.9548C11.489 20.952 11.4814 20.9491 11.4747 20.9472C11.4348 20.9311 11.394 20.9217 11.3541 20.9179C11.3085 20.9113 11.2629 20.9122 11.2192 20.9188C11.204 20.9217 11.1888 20.9245 11.1736 20.9273C11.1641 20.9292 11.1546 20.9321 11.146 20.9349C11.1223 20.9425 11.0985 20.951 11.0748 20.9624C11.0634 20.9671 11.052 20.9728 11.0406 20.9794C11.0292 20.9851 11.0178 20.9927 11.0073 21.0002C10.9265 21.0533 10.86 21.129 10.8192 21.2246C10.5095 21.9469 10.2055 22.5689 9.71715 23.011C9.25353 23.4295 8.5714 23.7286 7.40665 23.6709C5.57688 23.5781 4.47103 22.2669 4.22782 21.0296C5.35267 21.556 6.27516 21.6942 7.05799 21.5844C8.01563 21.449 8.67495 20.951 9.15092 20.5581C9.19368 20.5231 9.22883 20.4833 9.25638 20.4388C9.34188 20.3953 9.41694 20.3281 9.46824 20.2391C9.61074 19.9939 9.52619 19.6796 9.28013 19.5376C7.81612 18.6941 7.09029 17.6877 6.73212 16.8679C7.33445 17.31 7.95103 17.6489 8.5866 17.8515C9.6782 18.1999 10.7935 18.1374 11.9326 17.5789C12.1873 17.4539 12.2918 17.1462 12.1663 16.8915C12.0409 16.6378 11.7322 16.5337 11.4776 16.6587C11.374 16.7098 11.2705 16.7552 11.1688 16.7959C11.1479 16.7751 11.1251 16.7571 11.1004 16.7401C9.89671 15.9373 9.46159 14.8571 9.36373 13.9293C9.33048 13.615 9.33713 13.3196 9.36563 13.0621C9.8036 13.6235 10.5152 14.343 11.6277 15.036C12.2889 15.4469 13.0755 15.5453 13.866 15.4819C14.5813 15.4251 15.3366 15.2329 16.0748 14.9811C16.0748 14.9811 21.4207 12.4203 22.7412 12.0028C24.1796 11.5484 25.8431 11.3003 27.5902 11.2681C27.7156 11.2653 27.842 11.2643 27.9693 11.2643C29.04 11.2643 30.372 11.3978 30.3929 11.394C30.6019 11.4196 30.8052 11.448 30.999 11.4792C34.136 11.9848 36.9966 13.4048 38.8349 15.9562C38.9157 16.0679 38.9803 16.1758 39.0316 16.2781H39.0297Z" fill="#69BEBA"/>
<path d="M22.2504 51.0809C22.2305 51.2125 22.2105 51.3451 22.1887 51.4776C22.1678 51.6102 22.1469 51.7427 22.1241 51.8752C22.1041 51.9983 22.0832 52.1204 22.0613 52.2435C22.0357 52.3865 22.01 52.5304 21.9834 52.6752C21.9644 52.7793 21.9454 52.8825 21.9255 52.9867C21.8941 53.1504 21.8618 53.3152 21.8286 53.4799C21.8105 53.5708 21.7925 53.6617 21.7725 53.7535C21.6842 54.1824 21.5892 54.6131 21.4875 55.0457C21.4704 55.1215 21.4524 55.1982 21.4334 55.2748C21.4039 55.4008 21.3735 55.5267 21.3422 55.6535C21.2538 56.0104 21.1617 56.3673 21.0657 56.7261C20.9726 57.0726 20.8757 57.4163 20.7759 57.758C20.7265 57.9285 20.6762 58.0979 20.6249 58.2674C20.5736 58.4368 20.5213 58.6053 20.4691 58.7729H20.471C20.3912 59.0636 20.3057 59.3599 20.2145 59.6619C20.1204 59.9724 20.0207 60.2876 19.9152 60.6086C19.8668 60.7563 19.8174 60.9039 19.7661 61.0535C19.6815 61.3044 19.5922 61.5562 19.501 61.8109C19.406 62.075 19.3081 62.341 19.2074 62.608C19.1884 62.6582 19.1694 62.7074 19.1504 62.7576C18.7581 63.7867 18.321 64.8366 17.8527 65.8779C16.9929 67.7922 16.0257 69.6733 15.0301 71.3309C14.7897 71.7295 14.5484 72.1148 14.3071 72.485C13.7894 73.2783 13.2687 73.9997 12.7557 74.6236C11.2043 76.5104 9.62818 77.9465 8.29718 78.9292C7.94851 79.1876 7.46304 79.1498 7.15903 78.8411C6.99467 78.6745 6.91107 78.4558 6.91107 78.2352C6.91107 78.063 6.96237 77.8888 7.06687 77.7373C7.40034 77.2545 7.71955 76.7527 8.02356 76.233C8.29243 75.7729 8.54894 75.2986 8.79405 74.8101C9.52748 73.3474 10.1526 71.7579 10.6656 70.0501C10.7122 69.8957 10.7578 69.7405 10.8015 69.5843C8.66959 71.952 6.34485 73.6854 4.24431 74.5052C4.15025 74.5422 4.05335 74.5592 3.9574 74.5592C3.68093 74.5592 3.41397 74.4144 3.26482 74.1673C3.08241 73.8643 3.11946 73.4809 3.35412 73.2168C4.42862 72.0126 5.52211 70.6484 6.532 69.0731C8.25062 66.3939 9.73174 63.1031 10.4861 58.9462C10.1849 59.6496 9.84004 60.353 9.45527 61.0469C9.44197 61.0715 9.42867 61.0952 9.41537 61.1198C7.61315 64.3462 5.73302 65.9461 4.55117 66.6997C4.51222 66.7243 4.47517 66.7479 4.43812 66.7707C4.39536 66.7962 4.35451 66.8218 4.31461 66.8445C4.19396 66.9165 4.08185 66.978 3.98115 67.031C3.76264 67.1456 3.51088 67.0821 3.36457 66.9127C3.30662 66.8436 3.26577 66.7574 3.25152 66.659C3.22872 66.4961 3.20972 66.3655 3.20972 66.3655C3.20877 66.3551 3.20687 66.3437 3.20592 66.3333C3.20496 66.3323 3.20496 66.3314 3.20496 66.3295C2.68814 62.1915 2.73375 55.6895 4.44097 49.3797C4.98724 47.3964 5.71117 45.466 6.59756 43.6143C6.59851 43.6115 6.59946 43.6096 6.60041 43.6077C7.97701 40.7335 9.74504 38.0477 11.8513 35.6468C12.046 35.4244 12.2436 35.2047 12.4441 34.9879C12.445 34.987 12.446 34.986 12.446 34.9851C12.4888 34.9387 12.5325 34.8923 12.5752 34.8459C12.6512 34.7645 12.7282 34.6831 12.8051 34.6026L15.7122 31.5486C15.8927 31.3592 16.1939 31.3516 16.3839 31.5315C16.4827 31.6243 16.5321 31.7502 16.5321 31.8752C16.5321 31.9916 16.4894 32.109 16.402 32.1999L13.4948 35.254C11.0399 37.8318 9.00591 40.7903 7.47064 43.9901C6.60136 45.8012 5.89263 47.6889 5.35775 49.6287C3.73224 55.6365 3.64483 61.8166 4.1075 65.8694C4.1284 65.8562 4.14835 65.8429 4.16926 65.8296C5.12879 65.2077 6.08263 64.2676 6.95952 63.1391C8.54609 61.0971 9.88089 58.434 10.5421 55.9025C10.6238 55.5901 10.9212 55.3818 11.2432 55.4159C11.3877 55.4311 11.5159 55.4926 11.6157 55.5835C11.7477 55.7037 11.8285 55.876 11.8285 56.0634C11.8285 56.0824 11.8285 56.1013 11.8256 56.1212C11.2965 62.0561 9.39542 66.4696 7.13433 69.8948C6.47215 70.8983 5.77862 71.8166 5.08129 72.6639C4.87988 72.9072 4.67848 73.1458 4.47707 73.3777C4.82383 73.2158 5.1782 73.0284 5.53636 72.8154C5.63327 72.8021 5.78622 72.6743 6.21374 72.3884C7.91906 71.2476 9.69943 69.5739 11.3288 67.4921C11.4295 67.0348 11.5216 66.5738 11.6052 66.108C11.7468 65.3241 11.8864 64.2647 11.9605 63.6778C11.9919 63.4307 12.2075 63.2489 12.4564 63.2584C12.7358 63.2698 12.9467 63.514 12.9153 63.7904C12.8754 64.1426 12.7994 64.7144 12.6455 65.6659C12.6056 65.912 12.5629 66.1563 12.5173 66.3996C12.4251 66.9004 12.3234 67.3974 12.2123 67.8878C12.0261 68.7152 11.8133 69.5265 11.5748 70.3227C11.1511 71.7323 10.6523 73.0653 10.0814 74.3168C9.99015 74.5223 9.83624 74.8498 9.79824 74.9189C9.47523 75.5854 9.13036 76.2282 8.76365 76.8464C8.55084 77.2062 8.33043 77.5565 8.10337 77.8992C8.81305 77.3491 9.63198 76.5511 10.5032 75.5513C13.2203 72.4357 16.4561 67.3586 18.5329 61.702C18.892 60.7269 19.2131 59.7348 19.4934 58.7332L19.4867 58.7313C19.7224 57.9909 19.9428 57.2402 20.147 56.4819C20.6002 54.7958 20.9631 53.1078 21.2329 51.435C21.6481 48.8581 21.0125 46.2064 19.3803 44.1653C18.836 43.4846 18.2355 42.9308 17.5867 42.5152C17.5867 42.5152 16.9188 42.128 16.1255 41.8326C15.8851 41.7427 15.7607 41.4785 15.8414 41.2362C15.9269 40.9777 16.212 40.8433 16.4675 40.9399C16.5891 40.9862 16.7288 41.0412 16.8808 41.1055C16.9492 41.1339 17.0195 41.1652 17.0926 41.1974C17.1287 41.2135 17.1658 41.2305 17.2028 41.2475C17.3036 41.2939 17.4071 41.3432 17.5116 41.3952C17.5515 41.4151 17.5905 41.435 17.6304 41.4558C17.6731 41.4776 17.7168 41.5003 17.7596 41.524C17.8736 41.5855 17.9885 41.6508 18.1006 41.719C19.3822 42.4981 20.4453 43.743 21.2928 45.3316C22.2305 47.0906 22.5459 49.1109 22.2495 51.0819L22.2504 51.0809Z" fill="#161C2E"/>
<path d="M24.218 58.5134C23.9881 58.7567 23.7553 58.9925 23.5207 59.2187C23.3962 59.339 23.2708 59.4573 23.1464 59.5718L23.0979 59.6116L23.0381 59.6618L22.8775 59.7953C22.7493 59.9022 22.6466 60.0319 22.5744 60.1758C22.5583 60.2061 22.544 60.2383 22.5317 60.2705C22.4481 60.4788 22.4243 60.7098 22.468 60.9379L21.8819 60.9626L19.7652 61.0534L19.6949 61.0563C19.749 60.9076 19.8032 60.759 19.8564 60.6085C19.9143 60.4447 19.9713 60.28 20.0293 60.1143C20.0806 59.9638 20.1319 59.8133 20.1813 59.6618C20.2801 59.3674 20.3761 59.071 20.4692 58.7728C20.5224 58.6053 20.5737 58.4367 20.624 58.2673C20.6763 58.0978 20.7266 57.9284 20.7751 57.758C20.8758 57.4162 20.9717 57.0725 21.0648 56.7261C21.1608 56.3673 21.2529 56.0103 21.3413 55.6534C21.3916 55.4508 21.4401 55.2473 21.4866 55.0457C21.5883 54.613 21.6833 54.1823 21.7717 53.7534C21.7916 53.6616 21.8097 53.5707 21.8277 53.4798C21.861 53.3151 21.8933 53.1504 21.9246 52.9866C21.9446 52.8824 21.9636 52.7792 21.9826 52.6751C22.0092 52.5303 22.0348 52.3864 22.0605 52.2434C22.0823 52.1203 22.1032 51.9982 22.1232 51.8751C22.146 51.7426 22.1669 51.6101 22.1878 51.4775C22.2096 51.345 22.2296 51.2125 22.2495 51.0809C22.5459 49.1098 22.2305 47.0896 21.2928 45.3306C20.4454 43.742 19.3823 42.4971 18.1007 41.718C17.9886 41.6498 17.8737 41.5845 17.7596 41.5229C17.7169 41.4993 17.6732 41.4766 17.6304 41.4548C17.5905 41.434 17.5516 41.4141 17.5117 41.3942C17.4072 41.3421 17.3036 41.2929 17.2029 41.2465C17.1659 41.2295 17.1288 41.2124 17.0927 41.1963C17.0196 41.1641 16.9493 41.1329 16.8809 41.1045C16.955 40.6226 17.0348 40.1455 17.1193 39.674C17.2932 38.7056 17.4908 37.7579 17.7093 36.8349C18.3639 34.5164 19.3624 32.4999 20.5053 31.0098C21.4163 29.8207 22.4196 28.9659 23.4143 28.5588C23.4266 28.5541 23.439 28.5484 23.4513 28.5436C23.5055 28.6109 23.5615 28.6762 23.6176 28.7415C23.648 28.7775 23.6784 28.8125 23.7097 28.8466C23.724 28.8627 23.7382 28.8797 23.7534 28.8958C23.761 28.9043 23.7677 28.9129 23.7753 28.9204C23.8 28.9479 23.8247 28.9744 23.8494 29.0009C23.9311 29.0908 24.0147 29.1789 24.1012 29.266C24.1126 29.2792 24.1259 29.2925 24.1401 29.3057C24.1411 29.3076 24.143 29.3095 24.1458 29.3114C24.1705 29.337 24.1952 29.3616 24.2209 29.3862C24.2275 29.3928 24.2332 29.3995 24.2399 29.4051C24.2465 29.4118 24.2522 29.4184 24.2589 29.4231C25.2355 30.3585 26.3528 30.8167 27.6344 31.3658C27.7512 31.5409 28.06 31.6555 28.325 31.7908C28.496 31.8789 28.6499 31.9754 28.7183 32.1032C29.1544 32.9079 29.0442 34.3498 29.3663 35.3571C29.6323 36.1892 29.8242 37.0839 30.0009 38.022C30.0437 38.2483 30.0845 38.4774 30.1263 38.7084C30.17 38.9508 30.2137 39.1969 30.2574 39.444C31.958 48.9754 29.0395 53.4173 24.218 58.5134Z" fill="#FFCC4C"/>
<path d="M23.4912 60.2366L25.1319 60.6474C25.1319 60.6474 31.2853 55.3052 32.5166 49.1412C33.7469 42.9772 30.6707 39.073 30.6707 39.073C30.6707 39.073 31.5589 47.4475 29.4404 52.2227C27.8452 55.8183 23.4912 60.2356 23.4912 60.2356V60.2366Z" fill="#018F88"/>
<path fill-rule="evenodd" clip-rule="evenodd" d="M28.8367 31.236C29.1208 31.236 29.4894 31.8485 29.4894 32.1307C29.4894 32.1998 29.5141 32.3844 29.5796 32.7157C29.6414 33.0291 29.7307 33.4305 29.839 33.9048C29.8865 34.1112 29.9368 34.3317 29.99 34.5627C30.18 35.3883 30.4033 36.3596 30.6218 37.3934C31.1785 40.0262 31.7248 43.1408 31.6108 45.3987C31.2678 52.2311 28.1422 56.0065 23.4414 60.5043C23.2372 60.7003 22.9122 60.6937 22.7156 60.4901C22.5189 60.2866 22.5256 59.9628 22.7298 59.7668C27.3736 55.323 30.2617 51.7814 30.5848 45.3476C30.6902 43.2402 30.1753 40.2458 29.6157 37.6045C29.3991 36.5802 29.1787 35.6202 28.9887 34.7956C28.9355 34.5627 28.8842 34.3412 28.8367 34.131C28.7284 33.6567 28.6362 33.243 28.5716 32.9136C28.5099 32.6021 28.3227 31.9337 28.3227 31.7472C28.3227 31.4651 28.5526 31.236 28.8367 31.236Z" fill="#161C2E"/>
<path fill-rule="evenodd" clip-rule="evenodd" d="M30.1351 37.8687C30.3612 37.6983 30.6823 37.7438 30.8524 37.9691C31.9079 39.3683 34.4673 43.5461 33.5173 48.3459C32.4285 53.8472 29.1794 57.5677 27.095 59.9544C26.7216 60.3823 26.3853 60.7667 26.106 61.1113C25.9274 61.3309 25.6053 61.365 25.3849 61.187C25.1655 61.009 25.1313 60.6862 25.3099 60.4665C25.612 60.0935 25.9663 59.6874 26.3521 59.2434C28.4402 56.8445 31.4804 53.353 32.5112 48.1471C33.3747 43.7847 31.0339 39.9127 30.0325 38.5854C29.8625 38.3591 29.9071 38.0382 30.1332 37.8678L30.1351 37.8687Z" fill="#161C2E"/>
<path d="M35.7729 18.979C35.696 18.8209 35.6029 18.6638 35.4955 18.5066C35.4205 18.3987 35.3388 18.2898 35.2504 18.1828C35.1107 18.0134 34.9549 17.8449 34.783 17.6801C34.0733 16.9985 33.0957 16.3623 31.9348 15.8454C31.7704 15.7716 31.6013 15.7006 31.4284 15.6324C30.9192 15.4298 30.3786 15.2499 29.8152 15.0994C29.3925 14.9868 28.9735 14.8949 28.5621 14.823H28.5612C28.5336 14.8315 28.5061 14.8419 28.4785 14.8533C28.4871 14.8391 28.4966 14.8258 28.5061 14.8126C28.1498 14.752 27.7983 14.7056 27.4553 14.6744C27.214 14.6516 26.9765 14.6365 26.7428 14.6289C26.6088 14.6232 26.4758 14.6213 26.3447 14.6213C25.598 14.6213 24.9054 14.6961 24.2945 14.8391C24.2945 14.8391 24.2945 14.84 24.2936 14.84C23.6257 14.9972 23.2381 15.1411 22.802 15.4563C21.8871 16.1181 21.5081 17.1538 21.1651 18.4309C21.1471 18.4971 21.129 18.5634 21.1119 18.6306C21.0473 18.8758 20.9979 19.1276 20.9599 19.3795C20.6958 21.1422 21.0112 22.9448 21.0112 22.9448C21.1651 24.1111 21.5005 25.2206 21.9878 26.244C22.0629 26.4154 22.1541 26.581 22.2045 26.6757C22.2415 26.7458 22.2795 26.8158 22.3185 26.8849C22.3555 26.9522 22.3945 27.0194 22.4334 27.0856C22.4344 27.0885 22.4353 27.0904 22.4372 27.0923C22.4676 27.1434 22.498 27.1945 22.5284 27.2447C22.5465 27.2759 22.5655 27.3062 22.5845 27.3365C22.613 27.382 22.6405 27.4265 22.669 27.4709L22.7061 27.5277C22.7422 27.5827 22.7783 27.6376 22.8153 27.6925C22.9246 27.8534 23.0376 28.0125 23.1554 28.1677C23.1944 28.2207 23.2353 28.2728 23.2761 28.3249C23.3331 28.3987 23.392 28.4716 23.4519 28.5436C23.506 28.6108 23.5621 28.6761 23.6181 28.7414C23.6485 28.7774 23.6789 28.8124 23.7103 28.8465C23.7245 28.8635 23.7397 28.8796 23.754 28.8957C23.7616 28.9043 23.7682 28.9128 23.7758 28.9204C23.8005 28.9478 23.8252 28.9743 23.8499 29.0008C23.9316 29.0908 24.0152 29.1788 24.1017 29.2659C24.114 29.2792 24.1273 29.2924 24.1406 29.3057C24.1416 29.3076 24.1435 29.3094 24.1463 29.3113C24.171 29.336 24.1957 29.3615 24.2214 29.3861C24.228 29.3928 24.2337 29.3994 24.2404 29.4051C24.2461 29.4107 24.2527 29.4174 24.2594 29.4231C24.3401 29.5035 24.4219 29.5811 24.5055 29.6578C24.552 29.7004 24.5986 29.743 24.6461 29.7847C24.6879 29.8235 24.7306 29.8604 24.7734 29.8964C24.8199 29.9381 24.8665 29.9778 24.914 30.0166C24.9643 30.0592 25.0156 30.1018 25.0679 30.1435C25.1201 30.1851 25.1733 30.2268 25.2265 30.2685C25.2816 30.3111 25.3367 30.3537 25.3928 30.3953C25.5267 30.4957 25.6626 30.5922 25.8004 30.6869C25.9248 30.7721 26.0502 30.8535 26.1785 30.933C26.187 30.9378 26.1965 30.9435 26.2051 30.9491C26.2469 30.9747 26.2887 31.0003 26.3305 31.0258C26.3637 31.0457 26.397 31.0656 26.4302 31.0855C26.4863 31.1186 26.5433 31.1508 26.6012 31.183C26.6041 31.1849 26.6069 31.1868 26.6107 31.1887C26.6772 31.2265 26.7437 31.2625 26.8112 31.2985C26.815 31.3004 26.8178 31.3023 26.8207 31.3042C26.8872 31.3392 26.9537 31.3742 27.0212 31.4083C27.0307 31.413 27.0411 31.4187 27.0506 31.4234C27.1057 31.4518 27.1618 31.4793 27.2178 31.5058C27.3689 31.5796 27.5228 31.6497 27.6776 31.716C27.7337 31.7406 27.7907 31.7642 27.8477 31.787C27.899 31.8087 27.9503 31.8286 28.0016 31.8495C28.0729 31.8769 28.1441 31.9044 28.2154 31.9309C28.2629 31.9479 28.3094 31.9659 28.3569 31.982C28.3598 31.9829 28.3636 31.9839 28.3664 31.9848C28.4244 32.0057 28.4833 32.0255 28.5422 32.0454C28.6011 32.0653 28.66 32.0842 28.7189 32.1032C28.8376 32.1401 28.9564 32.1761 29.077 32.2092C29.2205 32.2499 29.3649 32.2868 29.5103 32.3209C29.6689 32.3588 29.8295 32.3929 29.991 32.4232C29.7867 32.1448 29.6366 31.84 29.5483 31.5105C29.535 31.4622 29.5236 31.414 29.5141 31.3657C29.3393 30.5316 29.5739 29.6427 30.1373 28.767L30.1354 28.7651C30.6123 28.0049 30.713 27.3204 30.675 26.7903C30.6636 26.7638 30.5981 26.5735 30.5259 26.3472C30.4052 25.9676 30.5373 25.552 30.8593 25.3162C30.979 25.2273 31.1016 25.1354 31.2032 25.0531C32.0896 24.3355 32.9589 23.42 33.7541 22.3692C34.1351 21.8665 34.4999 21.3325 34.8409 20.7749C34.8818 20.7077 34.9217 20.6405 34.9625 20.5733C34.9625 20.5723 34.9625 20.5704 34.9644 20.5685C35.0024 20.506 35.0385 20.4436 35.0756 20.3801C35.2533 20.0734 35.4214 19.7638 35.5801 19.4514C35.6532 19.3085 35.7245 19.1655 35.7929 19.0216C35.7862 19.0074 35.7796 18.9932 35.772 18.979H35.7729ZM26.8939 15.5832C26.9081 15.5832 26.9224 15.5841 26.9357 15.5851C26.9138 15.5974 26.892 15.6097 26.8701 15.623C26.8777 15.6097 26.8853 15.5964 26.8939 15.5832Z" fill="white"/>
<path d="M34.9634 20.5734C34.9245 20.6577 34.8855 20.7221 34.8418 20.7741C34.8826 20.7079 34.9226 20.6406 34.9634 20.5734Z" fill="#161C2E"/>
<g opacity="0.3">
<path d="M26.8948 15.5834C26.8863 15.5966 26.8787 15.6099 26.8711 15.6231C26.8929 15.6099 26.9148 15.5976 26.9366 15.5853C26.9233 15.5843 26.9091 15.5834 26.8948 15.5834ZM28.5071 14.8127C28.4976 14.826 28.4881 14.8393 28.4795 14.8535C28.5071 14.8421 28.5346 14.8317 28.5622 14.8232C28.5432 14.8194 28.5251 14.8156 28.5071 14.8127Z" fill="#161C2E"/>
<path d="M20.583 11.842L20.5897 11.8562C21.2347 11.5617 21.9083 11.2843 22.6313 11.0477C21.8827 11.2692 21.1948 11.5371 20.583 11.842Z" fill="#161C2E"/>
</g>
<g opacity="0.3">
<path d="M28.5061 14.8127C28.4966 14.8259 28.4871 14.8392 28.4785 14.8534C28.5061 14.842 28.5336 14.8316 28.5612 14.8231C28.5422 14.8193 28.5241 14.8155 28.5061 14.8127Z" fill="#161C2E"/>
</g>
<path d="M26.9379 15.5852C26.9157 15.5978 26.8934 15.6103 26.8711 15.6239C26.8788 15.6103 26.8866 15.5968 26.8953 15.5833C26.9098 15.5833 26.9244 15.5843 26.9379 15.5852Z" fill="#161C2E"/>
<path d="M39.0618 29.5934C38.9136 29.9171 38.7511 30.2428 38.5744 30.5685C36.7484 31.8617 34.5149 32.6219 32.1037 32.6219C31.9384 32.6219 31.775 32.6181 31.6116 32.6114C31.5983 32.6114 31.5859 32.6114 31.5736 32.6095C31.0358 32.5849 30.5086 32.5215 29.9936 32.423H29.9927C29.7884 32.1447 29.6383 31.8399 29.55 31.5104C29.5367 31.4621 29.5253 31.4139 29.5158 31.3656C29.341 30.5315 29.5756 29.6426 30.139 28.7669L30.1371 28.765C30.614 28.0048 30.7147 27.3203 30.6767 26.7902C30.7936 27.0723 30.9313 27.344 31.0881 27.6034C31.1128 27.6441 31.1384 27.6848 31.165 27.7255C31.2363 27.8391 31.3123 27.9499 31.393 28.0578C31.3484 28.675 30.9598 29.2469 30.9446 29.2696C30.5589 29.8632 30.2815 30.5741 30.4677 31.2652C30.4972 31.3732 30.5361 31.4792 30.5874 31.5814C31.0862 31.6562 31.5945 31.6931 32.1037 31.6931C34.493 31.6931 36.3522 30.7995 36.9147 30.4993C37.2348 30.4577 38.4537 30.2229 39.0618 29.5934Z" fill="#161C2E"/>
<path d="M31.3949 28.0303C31.394 28.0398 31.394 28.0483 31.3931 28.0578C31.3123 27.9498 31.2363 27.8391 31.165 27.7255C31.2363 27.8315 31.2933 27.8987 31.3949 28.0303Z" fill="#161C2E"/>
<path d="M34.9634 20.5732C34.9245 20.6575 34.8855 20.7219 34.8418 20.7739C34.8826 20.7077 34.9226 20.6405 34.9634 20.5732Z" fill="#161C2E"/>
<path d="M22.6299 11.0476C23.9922 10.6434 25.5541 10.3887 27.2252 10.331V10.3224C25.4401 10.3224 23.9514 10.615 22.6299 11.0476Z" fill="#161C2E"/>
<path d="M31.1631 27.7257C31.2343 27.8393 31.3103 27.9501 31.3911 28.058C31.3911 28.0485 31.3911 28.04 31.393 28.0305C31.2913 27.899 31.2343 27.8317 31.1631 27.7257Z" fill="#161C2E"/>
<path d="M43.2126 23.1143C43.2079 23.0594 43.2003 23.0045 43.1927 22.9496C42.7595 20.2212 41.3999 18.0021 40.0965 17.0715C40.467 14.7682 35.8318 11.1688 31.1424 10.5629C30.8887 10.5298 30.6322 10.4872 30.3709 10.4569H30.37C29.5986 10.366 28.7939 10.3177 27.9664 10.3177C27.7175 10.3177 27.4705 10.3225 27.2254 10.331C25.5542 10.3888 23.9924 10.6434 22.63 11.0477C21.907 11.2843 21.2335 11.5617 20.5884 11.8561C18.884 12.6334 15.6444 14.1197 15.0791 14.2163L16.0719 14.9812C16.0719 14.9812 21.4178 12.4204 22.7383 12.0029C24.1767 11.5485 25.8402 11.3004 27.5873 11.2682C27.7127 11.2654 27.8391 11.2645 27.9664 11.2645C29.0371 11.2645 30.369 11.3979 30.3899 11.3942C30.5989 11.4197 30.8023 11.4481 30.9961 11.4794C34.1331 11.9849 36.9937 13.405 38.832 15.9563C38.9127 16.068 38.9773 16.176 39.0286 16.2782C36.9528 16.6474 36.1519 18.2549 36.0569 18.4613H36.0522C35.98 18.6232 35.9068 18.7851 35.8299 18.946C35.8185 18.9716 35.8061 18.9962 35.7938 19.0217C35.7254 19.1656 35.6541 19.3086 35.581 19.4515C35.4223 19.764 35.2541 20.0735 35.0765 20.3803C35.0394 20.4437 35.0033 20.5062 34.9653 20.5687C34.9644 20.5706 34.9634 20.5724 34.9634 20.5734C34.9245 20.6576 34.8855 20.722 34.8418 20.7741C34.5008 21.3326 34.1359 21.8666 33.755 22.3693C32.9598 23.4201 32.0905 24.3356 31.2041 25.0532C31.1025 25.1356 30.9799 25.2274 30.8602 25.3164C30.5381 25.5521 30.4061 25.9677 30.5267 26.3473C30.5989 26.5736 30.6645 26.7639 30.6759 26.7904C30.7928 27.0725 30.9305 27.3442 31.0873 27.6036C31.112 27.6443 31.1376 27.685 31.1642 27.7257C31.2355 27.8318 31.2925 27.899 31.3941 28.0306C31.3941 28.04 31.3941 28.0486 31.3922 28.058C31.415 28.0902 31.4388 28.1224 31.4635 28.1536C31.5224 28.2332 31.5851 28.3099 31.6497 28.3856C32.7603 29.6987 34.4238 30.5318 36.2821 30.5318C36.4949 30.5318 36.7048 30.5204 36.912 30.4996H36.9139C37.234 30.4579 38.4529 30.2231 39.0609 29.5936C38.9127 29.9174 38.7503 30.243 38.5736 30.5687C37.918 31.7757 37.0355 32.9383 36.5842 33.5035C36.4198 33.7099 36.4293 34.0033 36.606 34.1984C36.7115 34.3148 36.8578 34.3763 37.007 34.3763C37.0934 34.3763 37.1808 34.3555 37.2616 34.3129C38.6401 33.5811 43.2905 30.6586 43.2905 24.417C43.2905 23.9758 43.2649 23.5413 43.2136 23.1143H43.2126ZM42.1495 26.3824C41.9016 27.6472 41.4151 28.8552 40.7074 29.9458C40.1487 30.8082 39.2234 31.9111 38.4453 32.5634C39.0942 31.6252 39.5597 30.74 39.8932 29.9637C40.1943 29.2632 39.4296 28.5835 38.7626 28.9555C38.1138 29.3181 37.2929 29.586 36.2811 29.5851C34.6974 29.5841 33.28 28.8637 32.3432 27.7333C32.1399 27.49 31.9604 27.2268 31.8055 26.9485C31.6696 26.7042 31.5366 26.4193 31.4264 26.0813C31.4264 26.0813 33.8756 24.3517 35.8983 20.8536C36.1747 20.3755 36.4284 19.8965 36.6573 19.4175C36.7476 19.23 36.8331 19.0426 36.9158 18.8561L36.9196 18.858C36.9462 18.7964 37.5409 17.5108 39.1978 17.2116C39.1978 17.2135 39.1978 17.2145 39.1978 17.2145C39.1978 17.2145 40.3758 18.3751 40.525 18.5853C40.5848 18.6696 40.6428 18.7557 40.6988 18.8438C40.7397 18.9044 40.7786 18.9659 40.8176 19.0284C40.8651 19.1032 40.9107 19.1789 40.9553 19.2556C41 19.3313 41.0437 19.4089 41.0864 19.4856C41.1425 19.585 41.1957 19.6863 41.247 19.7876C41.2764 19.8435 41.304 19.9003 41.3315 19.9571C41.3705 20.0366 41.4085 20.1161 41.4446 20.1976C41.4816 20.2761 41.5159 20.3556 41.5501 20.4352C41.5928 20.5365 41.6346 20.6378 41.6726 20.7391C41.6992 20.8044 41.723 20.8697 41.7467 20.935C41.7752 21.0136 41.8028 21.0922 41.8294 21.1708C41.8379 21.1944 41.8455 21.2171 41.8522 21.2408C41.875 21.3071 41.8959 21.3734 41.9158 21.4396C41.9386 21.5154 41.9605 21.5902 41.9814 21.6659C41.9918 21.7009 42.0013 21.7359 42.0099 21.771C42.0279 21.8325 42.0431 21.894 42.0583 21.9556C42.0802 22.0427 42.1001 22.1298 42.1191 22.2169C42.1362 22.2945 42.1533 22.3721 42.1676 22.4507C42.1761 22.4886 42.1837 22.5274 42.1894 22.5662C42.2008 22.641 42.2227 22.7499 42.2227 22.7555C42.2227 22.7925 42.5134 24.6499 42.1505 26.3824H42.1495Z" fill="#161C2E"/>
<path d="M36.9126 30.4995C36.3502 30.7996 34.4909 31.6933 32.1016 31.6933C31.5924 31.6933 31.0841 31.6563 30.5853 31.5816C30.534 31.4793 30.4951 31.3733 30.4656 31.2654C30.2794 30.5743 30.5568 29.8633 30.9425 29.2697C30.9577 29.247 31.3463 28.6752 31.391 28.0579C31.4138 28.0901 31.4375 28.1223 31.4622 28.1535C31.5211 28.2331 31.5838 28.3097 31.6484 28.3855C32.759 29.6986 34.4225 30.5317 36.2808 30.5317C36.4936 30.5317 36.7036 30.5203 36.9107 30.4995H36.9126Z" fill="#161C2E"/>
<path d="M42.1499 26.3824C41.9019 27.6472 41.4155 28.8552 40.7077 29.9458C40.1491 30.8082 39.2237 31.9111 38.4457 32.5634C39.0945 31.6252 39.56 30.7401 39.8935 29.9638C40.1947 29.2632 39.4299 28.5835 38.763 28.9555C38.1141 29.3181 37.2933 29.586 36.2815 29.5851C34.6977 29.5841 33.2803 28.8637 32.3435 27.7333C32.1402 27.49 31.9607 27.2268 31.8058 26.9485C31.67 26.7043 31.537 26.4193 31.4268 26.0813C31.4268 26.0813 33.876 24.3517 35.8986 20.8536C36.1751 20.3756 36.4287 19.8965 36.6577 19.4175C36.7479 19.23 36.8334 19.0426 36.9161 18.8561L36.9199 18.858C36.9465 18.7965 37.5412 17.5108 39.1981 17.2117C39.1981 17.2136 39.1981 17.2145 39.1981 17.2145C39.1981 17.2145 40.3761 18.3752 40.5253 18.5853C40.5851 18.6696 40.6431 18.7557 40.6991 18.8438C40.74 18.9044 40.7789 18.9659 40.8179 19.0284C40.8654 19.1032 40.911 19.1789 40.9557 19.2556C41.0003 19.3313 41.044 19.409 41.0868 19.4857C41.1428 19.5851 41.196 19.6864 41.2473 19.7877C41.2768 19.8435 41.3043 19.9003 41.3319 19.9571C41.3708 20.0366 41.4088 20.1162 41.4449 20.1976C41.482 20.2761 41.5162 20.3557 41.5504 20.4352C41.5931 20.5365 41.6349 20.6378 41.6729 20.7391C41.6995 20.8044 41.7233 20.8697 41.747 20.9351C41.7755 21.0136 41.8031 21.0922 41.8297 21.1708C41.8382 21.1945 41.8458 21.2172 41.8525 21.2408C41.8753 21.3071 41.8962 21.3734 41.9161 21.4396C41.9389 21.5154 41.9608 21.5902 41.9817 21.6659C41.9921 21.7009 42.0016 21.736 42.0102 21.771C42.0282 21.8325 42.0434 21.8941 42.0587 21.9556C42.0805 22.0427 42.1005 22.1298 42.1195 22.2169C42.1366 22.2945 42.1537 22.3722 42.1679 22.4507C42.1765 22.4886 42.1841 22.5274 42.1898 22.5662C42.2012 22.641 42.223 22.7499 42.223 22.7556C42.223 22.7925 42.5137 24.6499 42.1508 26.3824H42.1499Z" fill="#3A4458"/>
<path d="M31.2792 21.9261C31.2374 22.2007 30.9618 22.3758 30.692 22.3077H30.6911C30.4526 22.2461 30.3044 22.0161 30.3386 21.7747C30.3795 21.4821 30.3947 21.1716 30.3947 20.8583C30.3947 18.4186 29.3838 18.4186 29.3743 18.4186C29.3734 18.4176 29.3715 18.4176 29.3705 18.4186C29.152 18.4186 28.8936 18.5313 28.6438 18.6799C28.3863 18.8323 28.1383 19.0216 27.9531 19.1637C27.8951 19.2072 27.8419 19.2479 27.7935 19.2839C27.4904 19.5101 27.1845 19.6711 26.8985 19.7629C26.7095 19.8244 26.529 19.8557 26.3627 19.8557C26.147 19.8557 25.9561 19.8027 25.805 19.6938C25.5286 19.4941 25.35 19.1741 25.4839 18.7821C25.5846 18.4877 25.8525 18.3911 26.0929 18.4347C26.3276 18.4773 26.4862 18.7433 26.4891 18.9601C26.9327 19.2299 27.8628 17.5429 29.2945 17.4747C29.3116 17.4747 31.2488 17.4823 31.3438 20.8308C31.3552 21.2038 31.3324 21.5749 31.2792 21.9261Z" fill="#161C2E"/>
<path d="M28.242 24.3762C27.425 24.3971 26.7258 23.0935 26.6792 21.4632C26.6612 20.8337 26.7438 20.2467 26.8987 19.7629C27.1438 18.9942 27.5722 18.4849 28.0739 18.4726C28.2734 18.4669 28.4662 18.5417 28.6439 18.6799C29.194 19.1088 29.6015 20.1539 29.6367 21.3856C29.6832 23.0158 29.0581 24.3545 28.242 24.3762Z" fill="#161C2E"/>
<path d="M29.9911 32.4232C29.8296 32.3929 29.669 32.3589 29.5103 32.321C29.365 32.2869 29.2206 32.25 29.0771 32.2093C28.9565 32.1761 28.8377 32.1402 28.719 32.1032C28.6601 32.0843 28.6012 32.0654 28.5422 32.0455C28.4833 32.0256 28.4244 32.0057 28.3665 31.9849C28.3636 31.984 28.3598 31.983 28.357 31.9821C28.3095 31.966 28.2629 31.948 28.2154 31.9309C28.1442 31.9044 28.0729 31.877 28.0017 31.8495C27.9504 31.8287 27.8991 31.8088 27.8478 31.787C27.7908 31.7643 27.7338 31.7407 27.6777 31.716C27.5229 31.6498 27.369 31.5797 27.2179 31.5059C27.1618 31.4794 27.1058 31.4519 27.0507 31.4235C27.0412 31.4188 27.0307 31.4131 27.0212 31.4084C26.9538 31.3743 26.8873 31.3393 26.8208 31.3042C26.8179 31.3023 26.8151 31.3004 26.8113 31.2985C26.7438 31.2626 26.6773 31.2266 26.6108 31.1887C26.607 31.1868 26.6042 31.1849 26.6013 31.183C26.5434 31.1509 26.4864 31.1187 26.4303 31.0855C26.3971 31.0657 26.3638 31.0458 26.3306 31.0259C26.2888 31.0003 26.247 30.9748 26.2052 30.9492C26.1966 30.9435 26.1871 30.9379 26.1786 30.9331C26.0503 30.8536 25.9249 30.7712 25.8004 30.687C25.6627 30.5923 25.5268 30.4957 25.3929 30.3954C25.3368 30.3537 25.2817 30.3111 25.2266 30.2685C25.1734 30.2269 25.1202 30.1852 25.068 30.1436C25.0157 30.1019 24.9644 30.0593 24.9141 30.0167C24.8665 29.9779 24.82 29.9381 24.7734 29.8965C24.7307 29.8605 24.6879 29.8236 24.6461 29.7848C24.5986 29.7431 24.5521 29.7005 24.5055 29.6579C24.4219 29.5812 24.3402 29.5036 24.2595 29.4231C24.2528 29.4174 24.2462 29.4108 24.2405 29.4051C24.2338 29.3995 24.2281 29.3928 24.2215 29.3862C24.1958 29.3616 24.1711 29.336 24.1464 29.3114C24.1436 29.3095 24.1417 29.3076 24.1407 29.3057C24.1274 29.2925 24.1141 29.2792 24.1018 29.266C24.0153 29.1789 23.9317 29.0908 23.85 29.0009C23.8253 28.9744 23.8006 28.9479 23.7759 28.9204C23.7683 28.9129 23.7617 28.9043 23.7541 28.8958C23.7389 28.8797 23.7246 28.8627 23.7104 28.8466C23.679 28.8125 23.6486 28.7775 23.6182 28.7415C23.5621 28.6762 23.5061 28.6109 23.4519 28.5436C23.3921 28.4717 23.3332 28.3988 23.2762 28.325C23.2353 28.2729 23.1945 28.2208 23.1555 28.1678C23.0377 28.0125 22.9247 27.8535 22.8154 27.6926C22.7784 27.6376 22.7423 27.5827 22.7062 27.5278L22.6691 27.471C22.6406 27.4265 22.6131 27.382 22.5846 27.3366C22.5656 27.3063 22.5466 27.276 22.5285 27.2448C22.4981 27.1946 22.4677 27.1435 22.4373 27.0923C22.4354 27.0904 22.4344 27.0886 22.4335 27.0857C22.3945 27.0194 22.3556 26.9522 22.3185 26.885C22.2796 26.8159 22.2416 26.7458 22.2045 26.6758C22.0829 26.4476 22.1779 26.1646 22.4078 26.05C22.4126 26.0472 22.4164 26.0453 22.4211 26.0434L22.4373 26.0368C22.4373 26.0368 22.4382 26.0358 22.4392 26.0358C22.4401 26.0358 22.4411 26.0349 22.442 26.0349C22.4981 26.0131 22.557 26.0008 22.615 26.0008C22.7831 26.0008 22.9456 26.0926 23.0282 26.2507C23.3797 26.9238 23.6505 27.2732 23.8852 27.5922C23.9241 27.6452 23.964 27.6963 24.0049 27.7484C24.0799 27.845 24.1569 27.9396 24.2367 28.0334C24.3697 28.1924 24.5084 28.3477 24.6528 28.4991C25.2048 29.0795 25.8128 29.5869 26.4674 30.0177C26.5225 30.0536 26.5776 30.0896 26.6327 30.1237C26.6365 30.1265 26.6403 30.1284 26.6441 30.1313C26.7505 30.1985 26.8578 30.2629 26.9671 30.3253C27.2559 30.492 27.5523 30.6444 27.8563 30.7816C27.9162 30.8091 27.976 30.8356 28.0359 30.8612C28.1489 30.9095 28.2629 30.9558 28.3779 31.0003C28.4178 31.0164 28.4577 31.0316 28.4976 31.0458C28.6506 31.1026 28.8045 31.1565 28.9603 31.2058C29.0857 31.2455 29.212 31.2834 29.3393 31.3184C29.3973 31.3345 29.4562 31.3506 29.5141 31.3648C29.5236 31.414 29.535 31.4623 29.5483 31.5106C29.6367 31.8401 29.7868 32.1449 29.9911 32.4232Z" fill="#161C2E"/>
<path fill-rule="evenodd" clip-rule="evenodd" d="M15.0793 14.2163C14.6243 14.3422 14.1873 14.4283 13.7806 14.4605C13.1156 14.5135 12.5769 14.4198 12.1703 14.1671L11.625 15.0361C12.2862 15.447 13.0729 15.5455 13.8633 15.482C14.5787 15.4252 15.334 15.233 16.0721 14.9812L15.0793 14.2163Z" fill="#161C2E"/>
</g>
</g>
<defs>
<clipPath id="clip0_9736_39540">
<rect width="40.3738" height="80.4859" fill="white" transform="translate(2.91602 10.3177)"/>
</clipPath>
</defs>
</svg>
